<?xml version="1.0" encoding="UTF-8"?>
<svg version="1.1" xmlns="http://www.w3.org/2000/svg" width="557" height="448">
<path d="M0 0 C0.79900484 -0.00326884 1.59800969 -0.00653768 2.4212268 -0.00990558 C5.10147037 -0.01719493 7.78116971 -0.00302117 10.46138 0.01104736 C12.38150628 0.01025663 14.30163239 0.0081598 16.22175598 0.00485229 C21.43843823 -0.00028643 26.65492359 0.01326198 31.87157416 0.0303793 C37.32303884 0.04539655 42.77450077 0.04424078 48.22598267 0.04504395 C57.3782132 0.04873752 66.53036877 0.06371145 75.68257141 0.08624268 C87.44617241 0.11514291 99.20971311 0.125468 110.97334576 0.12992477 C121.06985919 0.13389851 131.1663594 0.14639969 141.2628634 0.16027164 C144.51726962 0.16437751 147.77167538 0.16729958 151.02608299 0.17006683 C156.12892081 0.17494626 161.2317217 0.18512658 166.33454132 0.19950485 C168.21275054 0.20404191 170.09096474 0.20686982 171.96917915 0.20791245 C174.52164527 0.20964793 177.07401779 0.21750351 179.62646484 0.22705078 C180.37955844 0.2261843 181.13265204 0.22531782 181.90856665 0.22442508 C187.00854936 0.25328507 187.00854936 0.25328507 188.12275696 1.36749268 C188.22043918 3.79598738 188.25272226 6.19600631 188.24301147 8.62495422 C188.24429311 9.77779763 188.24429311 9.77779763 188.24560064 10.9539308 C188.24725777 13.54892053 188.2417303 16.14384671 188.23628235 18.73883057 C188.2360005 20.59117125 188.23615816 22.44351204 188.23672485 24.29585266 C188.23701292 29.34109679 188.23111469 34.38631736 188.2241509 39.43155599 C188.21791891 44.69799637 188.21731368 49.96443724 188.21612549 55.23088074 C188.21301171 65.21107225 188.20479771 75.19125288 188.194776 85.17143959 C188.18361629 96.53037458 188.17810477 107.88931007 188.17308056 119.24824917 C188.16261513 142.62133639 188.1450148 165.99441392 188.12275696 189.36749268 C184.7058663 191.20115894 182.41326555 191.61429796 178.50947571 191.59796143 C177.42601868 191.59602783 176.34256165 191.59409424 175.22627258 191.59210205 C173.53534485 191.57373291 173.53534485 191.57373291 171.81025696 191.55499268 C170.13673157 191.55402588 170.13673157 191.55402588 168.42939758 191.55303955 C153.22720142 191.47193714 153.22720142 191.47193714 151.12275696 189.36749268 C151.02606815 187.39321033 151.00088621 185.41541437 151.00250244 183.43876648 C151.00044044 181.50565613 151.00044044 181.50565613 150.99833679 179.53349304 C151.00187641 178.09201027 151.00551123 176.65052773 151.00923157 175.20904541 C151.00951343 173.70152793 151.00935572 172.19401032 151.00878906 170.68649292 C151.00850105 166.58129924 151.01439835 162.47613452 151.02136302 158.3709476 C151.02759597 154.08546007 151.02820031 149.79997195 151.02938843 145.51448059 C151.03250192 137.39362616 151.04071554 129.27278512 151.05073792 121.15193659 C151.06398359 110.18223483 151.06939882 99.21252943 151.07524014 88.24282169 C151.08465542 70.95103531 151.10457422 53.6592772 151.12275696 36.36749268 C107.23275696 36.36749268 63.34275696 36.36749268 18.12275696 36.36749268 C18.16237311 63.96698967 18.16237311 63.96698967 18.21284485 91.56646729 C18.21736145 96.89398193 18.21736145 96.89398193 18.21820068 99.38484192 C18.21974031 101.13146723 18.22326561 102.87809145 18.22833252 104.62471008 C18.2356094 107.26416889 18.2366644 109.90356251 18.23628235 112.54302979 C18.23988046 113.32637412 18.24347857 114.10971846 18.24718571 114.9168005 C18.23678329 120.25346634 18.23678329 120.25346634 17.12275696 121.36749268 C14.50587255 121.46258827 11.91546796 121.49305268 9.29829407 121.48101807 C8.47884811 121.48116409 7.65940216 121.48131012 6.81512451 121.48146057 C4.09342343 121.4807612 1.37178991 121.47296769 -1.34989929 121.46514893 C-3.23177045 121.46328483 -5.1136421 121.46186089 -6.99551392 121.46086121 C-11.95872833 121.45703534 -16.92191368 121.44720448 -21.88511658 121.43615723 C-26.94563911 121.42594457 -32.00616631 121.4213639 -37.06669617 121.4163208 C-47.00355793 121.40558227 -56.94039807 121.38850504 -66.87724304 121.36749268 C-66.87502243 122.21718124 -66.87280182 123.06686981 -66.87051392 123.94230652 C-66.85051291 131.93285993 -66.83526989 139.92340498 -66.82543087 147.91397762 C-66.82020258 152.02243552 -66.81310591 156.13087281 -66.80180359 160.23931885 C-66.79097279 164.20096096 -66.7849658 168.1625832 -66.7823658 172.12423897 C-66.7805119 173.63897579 -66.77689195 175.15371146 -66.77151299 176.66843987 C-66.76429997 178.7829108 -66.76325221 180.89729861 -66.76371765 183.01177979 C-66.76149704 184.21757187 -66.75927643 185.42336395 -66.75698853 186.66569519 C-66.87724304 189.36749268 -66.87724304 189.36749268 -67.87724304 190.36749268 C-70.32112235 190.61097881 -72.7392919 190.794399 -75.18974304 190.92999268 C-75.91089294 190.97172607 -76.63204285 191.01345947 -77.37504578 191.05645752 C-95.38144909 192.03322466 -95.38144909 192.03322466 -102.87724304 190.36749268 C-104.20574235 187.71049406 -104.00437213 185.70139427 -104.00663757 182.72564697 C-104.00978973 181.53807297 -104.01294189 180.35049896 -104.01618958 179.12693787 C-104.01416534 177.82831314 -104.01214111 176.52968842 -104.01005554 175.19171143 C-104.01073081 173.82914716 -104.01170269 172.46658302 -104.01295471 171.10401917 C-104.01443464 168.22462841 -104.01227666 165.34526852 -104.00761414 162.46588135 C-104.00314767 159.5736077 -104.00295334 156.68139684 -104.00761414 153.78912354 C-104.0198502 146.06122693 -104.00371579 138.33465241 -103.92807388 130.60706902 C-103.89481886 127.13371839 -103.87473116 123.66138337 -103.88542175 120.18786621 C-103.89737241 116.21197764 -103.85413778 112.23767044 -103.80693054 108.26202393 C-103.81846161 107.07606125 -103.82999268 105.89009857 -103.84187317 104.66819763 C-103.80886612 103.00498222 -103.80886612 103.00498222 -103.77519226 101.3081665 C-103.77075104 100.34953201 -103.76630981 99.39089752 -103.76173401 98.4032135 C-102.38840978 93.68973522 -99.25389989 90.83315954 -95.87724304 87.36749268 C-95.22623878 86.69160693 -94.57523453 86.01572119 -93.90450287 85.31935406 C-91.76590089 83.12643631 -89.60393872 80.95897133 -87.43510437 78.79595947 C-86.62120743 77.98031021 -85.80731049 77.16466095 -84.96875 76.32429504 C-82.30141961 73.65259455 -79.6304853 70.98453159 -76.95927429 68.31671143 C-75.09541457 66.45217753 -73.23170326 64.58749526 -71.36813354 62.72267151 C-67.47395709 58.82668317 -63.57769338 54.93279162 -59.68022156 51.0401001 C-55.17996804 46.54530262 -50.68334872 42.04689356 -46.18856984 37.54662198 C-41.85047621 33.20344053 -37.5095728 28.86307888 -33.16747093 24.5239048 C-31.32512178 22.68222276 -29.48351526 20.83979749 -27.64266396 18.99661827 C-25.07458569 16.42600392 -22.5033297 13.858611 -19.93119812 11.29205322 C-19.1711145 10.52994537 -18.41103088 9.76783752 -17.62791443 8.9826355 C-16.92574295 8.28328384 -16.22357147 7.58393219 -15.50012207 6.86338806 C-14.5901231 5.95395463 -14.5901231 5.95395463 -13.6617403 5.0261488 C-13.07285621 4.47879228 -12.48397211 3.93143576 -11.87724304 3.36749268 C-11.3049893 2.80796937 -10.73273556 2.24844606 -10.14314079 1.67196751 C-6.8532919 -0.22199486 -3.69159438 -0.03984582 0 0 Z M-19.87724304 62.36749268 C-20.37224304 63.04811768 -20.86724304 63.72874268 -21.37724304 64.42999268 C-23.45849061 66.87545857 -25.45031148 68.79826185 -27.87724304 70.86749268 C-30.9462695 73.48836185 -33.42260472 76.15107005 -35.87724304 79.36749268 C-37.5250791 81.05277956 -39.18726981 82.72446315 -40.87724304 84.36749268 C-37.95054613 85.34305831 -36.43662983 85.42812678 -33.42802429 85.24639893 C-32.1566864 85.17388916 -32.1566864 85.17388916 -30.85966492 85.09991455 C-29.9785907 85.04384033 -29.09751648 84.98776611 -28.18974304 84.92999268 C-26.85072937 84.85168213 -26.85072937 84.85168213 -25.48466492 84.77178955 C-23.28182744 84.64221088 -21.07945431 84.50725022 -18.87724304 84.36749268 C-18.05317263 77.33479103 -17.75608275 70.44863846 -17.87724304 63.36749268 C-18.53724304 63.03749268 -19.19724304 62.70749268 -19.87724304 62.36749268 Z " fill="#06269A" transform="translate(239.8772430419922,18.63250732421875)"/>
<path d="M0 0 C0.73541016 0.00202423 1.47082031 0.00404846 2.22851562 0.00613403 C2.97939453 0.00517731 3.73027344 0.00422058 4.50390625 0.00323486 C6.09440189 0.00255315 7.6849003 0.00440682 9.27539062 0.00857544 C11.71816217 0.01392386 14.16074984 0.00863019 16.60351562 0.00222778 C18.1451827 0.00288857 19.68684966 0.00416973 21.22851562 0.00613403 C21.96392578 0.0041098 22.69933594 0.00208557 23.45703125 0 C28.61356402 0.02399493 28.61356402 0.02399493 29.72851562 1.13894653 C29.91013326 3.21720642 30.02919046 5.30097212 30.12304688 7.38504028 C30.1889502 8.6886853 30.25485352 9.99233032 30.32275391 11.33547974 C30.35757874 12.02807892 30.39240356 12.7206781 30.42828369 13.43426514 C31.77791685 39.0805834 36.93464603 60.39518665 52.72851562 81.13894653 C53.33695313 81.98070435 53.94539063 82.82246216 54.57226562 83.68972778 C58.43554603 88.91393652 62.70033869 93.04838212 67.72851562 97.13894653 C68.44394531 97.76414185 69.159375 98.38933716 69.89648438 99.03347778 C92.50667182 118.23509426 120.61571008 124.84716247 149.72851562 123.13894653 C173.03616123 121.23208769 194.52964422 110.70818726 211.72851562 95.13894653 C212.21416992 94.70243774 212.69982422 94.26592896 213.20019531 93.81619263 C232.66946474 76.09127971 245.11728178 51.14443333 246.96459961 24.76809692 C247.10741529 21.35004154 247.21107063 17.93403232 247.29101562 14.51394653 C247.35073197 12.20914955 247.4143264 9.90444867 247.48242188 7.59988403 C247.51831421 6.09627319 247.51831421 6.09627319 247.55493164 4.56228638 C247.72851562 2.13894653 247.72851562 2.13894653 248.72851562 0.13894653 C253.5340016 0.0895777 258.33934056 0.0532421 263.14501953 0.02908325 C264.78046235 0.01901399 266.41588712 0.00535773 268.05126953 -0.01193237 C270.39945932 -0.03614052 272.7474115 -0.04752704 275.09570312 -0.05636597 C275.82908905 -0.06668854 276.56247498 -0.07701111 277.31808472 -0.08764648 C279.1231426 -0.08804715 280.92759392 0.01681899 282.72851562 0.13894653 C285.64025522 3.05068613 285.01738726 5.48913471 285.05786133 9.47634888 C285.04952271 10.97995972 285.04952271 10.97995972 285.04101562 12.51394653 C285.03610107 13.5460022 285.03118652 14.57805786 285.02612305 15.64138794 C284.43096881 55.45873222 267.54418313 92.56237231 239.40722656 120.51101685 C212.60343927 146.50398567 174.88587355 160.8761227 137.65722656 160.4223938 C97.80954256 159.32745018 60.65122604 143.97784421 32.84960938 115.19363403 C31.07353654 113.22388272 29.39464063 111.20262848 27.72851562 109.13894653 C26.95894531 108.20695435 26.189375 107.27496216 25.39648438 106.31472778 C5.12743156 81.26397459 -5.27981025 50.47129717 -7.02148438 18.51394653 C-7.0662793 17.69692261 -7.11107422 16.87989868 -7.15722656 16.03811646 C-7.36871254 10.94413107 -7.10863774 6.17317959 -6.27148438 1.13894653 C-4.53855458 -0.59398326 -2.30934102 0.01074607 0 0 Z " fill="#06269A" transform="translate(143.271484375,276.8610534667969)"/>
<path d="M0 0 C1.2283255 -0.00563965 2.456651 -0.0112793 3.72219849 -0.01708984 C5.09075986 -0.01320089 6.45932066 -0.00910453 7.82788086 -0.00482178 C9.26333799 -0.00753062 10.69879373 -0.01109095 12.13424683 -0.01544189 C16.03913132 -0.02458092 19.94391045 -0.02101545 23.84879684 -0.01468372 C27.92914877 -0.00963154 32.00949148 -0.01431299 36.08984375 -0.01745605 C42.94296901 -0.02109799 49.7960512 -0.01629066 56.64916992 -0.0067749 C64.58014279 0.00411009 72.51101285 0.00058468 80.44198322 -0.01042771 C87.24285673 -0.01949414 94.04369924 -0.02078903 100.84457684 -0.01555037 C104.91016514 -0.01242711 108.97570506 -0.01203105 113.04129028 -0.01862335 C116.86290441 -0.02438684 120.68438555 -0.02041834 124.50598526 -0.00883484 C125.91129459 -0.00618289 127.31661506 -0.00696242 128.72192001 -0.01136017 C130.63475911 -0.01679576 132.54762256 -0.00878242 134.46044922 0 C135.5326622 0.00075405 136.60487518 0.0015081 137.70957947 0.002285 C140.23022461 0.25396729 140.23022461 0.25396729 142.23022461 2.25396729 C142.48901367 5.38677979 142.48901367 5.38677979 142.49584961 9.37896729 C142.49776306 10.08166748 142.49967651 10.78436768 142.50164795 11.50836182 C142.50300936 12.99453082 142.49931593 14.48071173 142.4909668 15.96685791 C142.48026615 18.24512374 142.490863 20.52260105 142.50366211 22.80084229 C142.50234051 24.24355236 142.4997781 25.68626195 142.49584961 27.12896729 C142.49359375 28.44638916 142.49133789 29.76381104 142.48901367 31.12115479 C142.23022461 34.25396729 142.23022461 34.25396729 140.23022461 36.25396729 C128.84710694 38.59476874 116.1848948 37.39873307 104.63647461 37.38677979 C102.32173655 37.38745527 100.00699856 37.38842732 97.69226074 37.38967896 C92.84406864 37.39114912 87.99589502 37.38902645 83.14770508 37.38433838 C77.01804109 37.37869199 70.88842096 37.38198741 64.75875854 37.38777542 C21.52727063 37.42255072 21.52727063 37.42255072 3.88647461 36.80865479 C2.76817261 36.76991241 1.64987061 36.73117004 0.49768066 36.69125366 C-6.63424703 36.38949564 -6.63424703 36.38949564 -7.76977539 35.25396729 C-7.88299973 32.82906358 -7.93394414 30.43369867 -7.93774414 28.00787354 C-7.94107254 27.28156235 -7.94440094 26.55525116 -7.9478302 25.80693054 C-7.95290214 24.26771683 -7.95523844 22.72849208 -7.95507812 21.18927002 C-7.95726305 18.82979258 -7.97541104 16.47078368 -7.99438477 14.11138916 C-7.99731891 12.61855222 -7.99930356 11.12571306 -8.00024414 9.63287354 C-8.00742966 8.92449844 -8.01461517 8.21612335 -8.02201843 7.48628235 C-7.99107302 0.87495343 -6.35357962 0.00446826 0 0 Z " fill="#1634A2" transform="translate(214.769775390625,241.74603271484375)"/>
<path d="M0 0 C1.08088614 0.00054477 2.16177229 0.00108953 3.27541256 0.00165081 C4.51359737 -0.00254368 5.75178219 -0.00673817 7.02748775 -0.01105976 C8.40708143 -0.0055759 9.78667432 0.00010709 11.16626644 0.00596905 C12.61319725 0.0048966 14.06012763 0.00295847 15.50705624 0.00021648 C19.44287206 -0.00464055 23.37857491 0.00303414 27.31437707 0.01316953 C31.4258892 0.02193466 35.53739763 0.02019289 39.6489172 0.01980877 C46.55331984 0.02074602 53.4576786 0.02943871 60.36206722 0.04307842 C68.35552022 0.0588108 76.34892515 0.06407635 84.3423925 0.06334287 C92.01933148 0.06273346 99.69625472 0.06783051 107.37318897 0.07613468 C110.64630856 0.07967394 113.91942258 0.08149884 117.19254398 0.08202839 C121.04285104 0.08302968 124.89311742 0.0891087 128.74341106 0.09919453 C130.16042806 0.1021262 131.57744973 0.10334356 132.99446964 0.10276699 C134.92080395 0.10227962 136.84713654 0.10852575 138.77345943 0.1151762 C139.85396855 0.11685205 140.93447767 0.11852789 142.04772949 0.12025452 C144.46094418 0.24888897 144.46094418 0.24888897 145.46094418 1.24888897 C145.61779973 2.64119187 145.71172066 4.04072251 145.77735043 5.44029522 C145.84019222 6.73483624 145.84019222 6.73483624 145.90430355 8.05552959 C145.94361996 8.96496319 145.98293636 9.87439678 146.02344418 10.81138897 C146.06662777 11.69375225 146.10981136 12.57611553 146.15430355 13.48521709 C146.27478753 16.07275403 146.37216499 18.66008782 146.46094418 21.24888897 C146.49300961 21.9718919 146.52507504 22.69489483 146.55811214 23.43980694 C146.68458034 28.07883925 145.80076256 31.83445653 144.46094418 36.24888897 C125.18141388 36.27221664 105.90188644 36.2898675 86.62234497 36.30070114 C77.67116036 36.30586438 68.7199845 36.3129076 59.7688055 36.32432842 C51.96984029 36.33427441 44.17088141 36.34074219 36.37191004 36.34297746 C32.23982232 36.34428472 28.10775274 36.34737148 23.97567081 36.35461903 C20.09092891 36.36137791 16.20621271 36.3635062 12.32146549 36.36199665 C10.89154579 36.36227304 9.46162527 36.36427895 8.03171062 36.36809444 C6.08776366 36.37302956 4.14380308 36.37128702 2.19985104 36.36914349 C1.10936994 36.37006528 0.01888884 36.37098707 -1.10463715 36.3719368 C-3.53905582 36.24888897 -3.53905582 36.24888897 -4.53905582 35.24888897 C-4.65228016 32.82398526 -4.70322458 30.42862035 -4.70702457 28.00279522 C-4.71035297 27.27648403 -4.71368137 26.55017284 -4.71711063 25.80185223 C-4.72218257 24.26263851 -4.72451888 22.72341377 -4.72435856 21.1841917 C-4.72654348 18.82471426 -4.74469148 16.46570536 -4.7636652 14.10631084 C-4.76659934 12.61347391 -4.768584 11.12063474 -4.76952457 9.62779522 C-4.77671009 8.91942013 -4.78389561 8.21104504 -4.79129887 7.48120403 C-4.75846513 0.46644484 -4.75846513 0.46644484 0 0 Z " fill="#05259A" transform="translate(211.53905582427979,172.7511110305786)"/>
<path d="M0 0 C1.25477646 -0.00960754 2.50955292 -0.01921509 3.80235291 -0.02911377 C5.18276794 -0.03396086 6.56318507 -0.03823991 7.94360352 -0.04199219 C9.34985864 -0.04774088 10.75611372 -0.05349864 12.16236877 -0.05926514 C15.11394619 -0.06978322 18.06549631 -0.0756207 21.01708984 -0.07910156 C24.80489008 -0.08459054 28.59233159 -0.10862328 32.38001919 -0.13707352 C35.28559941 -0.15566823 38.19109266 -0.16090377 41.09672737 -0.16243744 C42.49342881 -0.1654713 43.89012846 -0.17352443 45.28677177 -0.18662262 C47.23798433 -0.20361649 49.18934399 -0.19996776 51.140625 -0.1953125 C52.2523558 -0.19895813 53.36408661 -0.20260376 54.50950623 -0.20635986 C55.37592239 -0.08508728 56.24233856 0.0361853 57.13500977 0.16113281 C59.63079377 3.90480882 59.39294761 5.91233793 59.40063477 10.38378906 C59.40254822 11.08507431 59.40446167 11.78635956 59.40643311 12.50889587 C59.40779243 13.98908854 59.40411359 15.46929322 59.39575195 16.94946289 C59.38503232 19.21885825 59.39566346 21.48746492 59.40844727 23.75683594 C59.40712594 25.19498873 59.4045641 26.63314103 59.40063477 28.07128906 C59.39837891 29.38234619 59.39612305 30.69340332 59.39379883 32.04418945 C59.13500977 35.16113281 59.13500977 35.16113281 57.13500977 37.16113281 C54.50950623 37.40837097 54.50950623 37.40837097 51.140625 37.40405273 C49.88269638 37.40712936 48.62476776 37.41020599 47.32872009 37.41337585 C45.95034605 37.40647863 44.57197381 37.39921171 43.19360352 37.39160156 C41.78638247 37.39040986 40.37916062 37.38995658 38.97193909 37.39021301 C36.02209498 37.38864794 33.07237219 37.3803558 30.12255859 37.36694336 C26.33369148 37.34993785 22.54495759 37.34612944 18.75605679 37.34688854 C15.85051695 37.34661718 12.94500648 37.34114174 10.03947639 37.3338871 C8.64197067 37.33069615 7.24446161 37.32873204 5.84695244 37.32799339 C3.89795619 37.32583523 1.94897225 37.31630594 0 37.30639648 C-1.11093521 37.30258469 -2.22187042 37.29877289 -3.36647034 37.29484558 C-5.86499023 37.16113281 -5.86499023 37.16113281 -6.86499023 36.16113281 C-6.96590499 33.57923835 -7.00470522 31.02466781 -6.99780273 28.44238281 C-6.99875946 27.66930786 -6.99971619 26.89623291 -7.0007019 26.09973145 C-7.00138364 24.46215738 -6.9995298 22.82458062 -6.99536133 21.18701172 C-6.99001295 18.67181361 -6.9953065 16.15679408 -7.00170898 13.64160156 C-7.0010482 12.05436158 -6.99976704 10.46712171 -6.99780273 8.87988281 C-6.99982697 8.12259888 -7.0018512 7.36531494 -7.00393677 6.58508301 C-6.97415159 -0.00495975 -6.45122854 0.03965038 0 0 Z " fill="#05259B" transform="translate(298.864990234375,102.8388671875)"/>
<path d="M0 0 C25.4075698 -0.02332591 50.815138 -0.04097766 76.22271633 -0.05181217 C88.01900528 -0.05697579 99.81528758 -0.06401972 111.61157227 -0.07543945 C121.88920997 -0.0853843 132.16684287 -0.09185295 142.44448525 -0.09408849 C147.89001788 -0.09539594 153.33553675 -0.09848393 158.78106499 -0.10573006 C163.90025209 -0.11248713 169.0194197 -0.1146176 174.13861084 -0.11310768 C176.02327136 -0.11338415 177.9079325 -0.11539112 179.79258919 -0.11920547 C182.35401437 -0.12413785 184.91536468 -0.12299999 187.47679138 -0.12025452 C188.23261346 -0.12316736 188.98843553 -0.1260802 189.76716131 -0.12908131 C194.88587879 -0.11412121 194.88587879 -0.11412121 196 1 C196.09768222 3.42849471 196.12996531 5.82851363 196.12025452 8.25746155 C196.12153615 9.41030495 196.12153615 9.41030495 196.12284368 10.58643812 C196.12450081 13.18142786 196.11897334 15.77635403 196.11352539 18.37133789 C196.11324354 20.22367857 196.1134012 22.07601937 196.1139679 23.92835999 C196.11425597 28.97360411 196.10835773 34.01882468 196.10139394 39.06406331 C196.09516195 44.33050369 196.09455672 49.59694456 196.09336853 54.86338806 C196.09025475 64.84357958 196.08204075 74.8237602 196.07201904 84.80394691 C196.06085933 96.1628819 196.05534781 107.5218174 196.05032361 118.8807565 C196.03985817 142.25384372 196.02225784 165.62692125 196 189 C192.58310934 190.83366626 190.29050859 191.24680528 186.38671875 191.23046875 C185.30326172 191.22853516 184.21980469 191.22660156 183.10351562 191.22460938 C181.41258789 191.20624023 181.41258789 191.20624023 179.6875 191.1875 C178.01397461 191.1865332 178.01397461 191.1865332 176.30664062 191.18554688 C161.10444447 191.10444447 161.10444447 191.10444447 159 189 C158.9033112 187.02571766 158.87812925 185.04792169 158.87974548 183.0712738 C158.87768349 181.13816345 158.87768349 181.13816345 158.87557983 179.16600037 C158.87911945 177.72451759 158.88275427 176.28303505 158.88647461 174.84155273 C158.88675647 173.33403526 158.88659877 171.82651764 158.8860321 170.31900024 C158.88574409 166.21380656 158.89164139 162.10864185 158.89860606 158.00345492 C158.90483901 153.7179674 158.90544335 149.43247928 158.90663147 145.14698792 C158.90974496 137.02613348 158.91795859 128.90529244 158.92798096 120.78444391 C158.94122663 109.81474215 158.94664186 98.84503675 158.95248318 87.87532902 C158.96189847 70.58354264 158.98181726 53.29178453 159 36 C115.11 36 71.22 36 26 36 C26.03961615 63.59949699 26.03961615 63.59949699 26.09008789 91.19897461 C26.09460449 96.52648926 26.09460449 96.52648926 26.09544373 99.01734924 C26.09698335 100.76397455 26.10050865 102.51059877 26.10557556 104.25721741 C26.11285244 106.89667621 26.11390744 109.53606984 26.11352539 112.17553711 C26.1171235 112.95888144 26.12072161 113.74222578 26.12442875 114.54930782 C26.11402634 119.88597366 26.11402634 119.88597366 25 121 C22.38311559 121.09509559 19.792711 121.12556 17.17553711 121.11352539 C16.35609116 121.11367142 15.5366452 121.11381744 14.69236755 121.1139679 C11.97066647 121.11326852 9.24903295 121.10547501 6.52734375 121.09765625 C4.64547259 121.09579216 2.76360094 121.09436821 0.88172913 121.09336853 C-4.08148529 121.08954267 -9.04467064 121.07971181 -14.00787354 121.06866455 C-19.06839606 121.0584519 -24.12892327 121.05387122 -29.18945312 121.04882812 C-39.12631488 121.0380896 -49.06315503 121.02101236 -59 121 C-58.99777939 121.84968857 -58.99555878 122.69937714 -58.99327087 123.57481384 C-58.97326986 131.56536725 -58.95802684 139.5559123 -58.94818783 147.54648495 C-58.94295954 151.65494285 -58.93586287 155.76338014 -58.92456055 159.87182617 C-58.91372975 163.83346828 -58.90772276 167.79509052 -58.90512276 171.75674629 C-58.90326886 173.27148311 -58.8996489 174.78621879 -58.89426994 176.30094719 C-58.88705693 178.41541813 -58.88600917 180.52980594 -58.88647461 182.64428711 C-58.884254 183.85007919 -58.88203339 185.05587128 -58.87974548 186.29820251 C-59 189 -59 189 -60 190 C-62.44387931 190.24348613 -64.86204886 190.42690632 -67.3125 190.5625 C-68.0336499 190.6042334 -68.7547998 190.6459668 -69.49780273 190.68896484 C-87.50420605 191.66573199 -87.50420605 191.66573199 -95 190 C-96.32849931 187.34300138 -96.12712909 185.33390159 -96.12939453 182.3581543 C-96.13254669 181.17058029 -96.13569885 179.98300629 -96.13894653 178.75944519 C-96.1369223 177.46082047 -96.13489807 176.16219574 -96.1328125 174.82421875 C-96.13348777 173.46165449 -96.13445964 172.09909034 -96.13571167 170.73652649 C-96.1371916 167.85713574 -96.13503362 164.97777584 -96.13037109 162.09838867 C-96.12590463 159.20611502 -96.1257103 156.31390417 -96.13037109 153.42163086 C-96.14260716 145.69373426 -96.12647275 137.96715973 -96.05083084 130.23957634 C-96.01757581 126.76622572 -95.99748811 123.2938907 -96.00817871 119.82037354 C-96.02012937 115.84448496 -95.97689474 111.87017776 -95.9296875 107.89453125 C-95.94121857 106.70856857 -95.95274963 105.5226059 -95.96463013 104.30070496 C-95.82638454 97.33455079 -94.8362135 93.50840654 -89.77894592 88.58659363 C-89.19189377 88.06301773 -88.60484161 87.53944183 -88 87 C-87.0381298 86.01511944 -86.08066244 85.0259078 -85.12890625 84.03125 C-84.28199219 83.1959375 -83.43507812 82.360625 -82.5625 81.5 C-81.69753906 80.6440625 -80.83257812 79.788125 -79.94140625 78.90625 C-79.30074219 78.2771875 -78.66007812 77.648125 -78 77 C-78 80.33057572 -78.37280012 80.84595178 -80.3125 83.375 C-81.90003337 85.48281742 -83.22986701 87.42142285 -84.5 89.75 C-86 92 -86 92 -88.625 93.5625 C-91.12779653 94.7314483 -91.12779653 94.7314483 -91.63854885 96.84860611 C-92.23841376 100.41906286 -92.17991042 104.01307405 -92.20532227 107.62402344 C-92.21522186 108.49267532 -92.22512146 109.36132721 -92.23532104 110.25630188 C-92.26687728 113.12396531 -92.29167027 115.9916453 -92.31640625 118.859375 C-92.33698085 120.84906441 -92.35797745 122.83874949 -92.37937927 124.82843018 C-92.43454768 130.06281024 -92.48398005 135.29722941 -92.53222656 140.53167725 C-92.58247976 145.87401811 -92.6381459 151.21630225 -92.69335938 156.55859375 C-92.800877 167.03901582 -92.90183593 177.51948614 -93 188 C-82.44 188 -71.88 188 -61 188 C-61.01160156 183.10285156 -61.02320313 178.20570313 -61.03515625 173.16015625 C-61.04026315 170.06575389 -61.04507694 166.9713567 -61.04882812 163.87695312 C-61.05481601 158.96068244 -61.06191484 154.04443031 -61.07543945 149.12817383 C-61.08627025 145.16653172 -61.09227724 141.20490948 -61.09487724 137.24325371 C-61.09673114 135.72851689 -61.1003511 134.21378121 -61.10573006 132.69905281 C-61.11294307 130.58458187 -61.11399083 128.47019406 -61.11352539 126.35571289 C-61.115746 125.14992081 -61.11796661 123.94412872 -61.12025452 122.70179749 C-61 120 -61 120 -60 119 C-57.38307723 118.90490302 -54.79274684 118.87445307 -52.17553711 118.88647461 C-50.92642091 118.88629381 -50.92642091 118.88629381 -49.65207005 118.88610935 C-46.94380122 118.88685856 -44.23560034 118.89448715 -41.52734375 118.90234375 C-39.86039259 118.90381314 -38.19344097 118.90483387 -36.52648926 118.90539551 C-30.33015249 118.91064869 -24.13382559 118.92460976 -17.9375 118.9375 C-4.098125 118.958125 9.74125 118.97875 24 119 C24 91.28 24 63.56 24 35 C69.21 35 114.42 35 161 35 C161 85.82 161 136.64 161 189 C171.89 189 182.78 189 194 189 C194 127.29 194 65.58 194 2 C129.65 2 65.3 2 -1 2 C-0.67 1.34 -0.34 0.68 0 0 Z " fill="#7D90CC" transform="translate(232,19)"/>
<path d="M0 0 C0.67671753 -0.00191345 1.35343506 -0.0038269 2.05065918 -0.00579834 C3.47957736 -0.00715765 4.90850799 -0.00347894 6.33740234 0.00488281 C8.52339441 0.01558654 10.70856472 0.00497956 12.89453125 -0.0078125 C14.28385598 -0.00649086 15.6731802 -0.00392837 17.0625 0 C18.32642578 0.00225586 19.59035156 0.00451172 20.89257812 0.00683594 C24.03125 0.265625 24.03125 0.265625 27.03125 2.265625 C27.29822888 4.89024744 27.37957984 7.27628433 27.32421875 9.8984375 C27.31997391 10.65027313 27.31572906 11.40210876 27.31135559 12.17672729 C27.2945417 14.58172185 27.25688624 16.98588309 27.21875 19.390625 C27.20370659 21.01951916 27.19001758 22.64842644 27.17773438 24.27734375 C27.14462954 28.27375934 27.09283009 32.26955082 27.03125 36.265625 C23.42152117 38.52373771 20.38679794 38.52345753 16.18359375 38.53125 C15.53048721 38.53316345 14.87738068 38.5350769 14.20448303 38.53704834 C12.82861952 38.5384052 11.45274298 38.53474368 10.0769043 38.52636719 C7.97220142 38.51564259 5.86834865 38.52628753 3.76367188 38.5390625 C2.42447729 38.53774115 1.08528323 38.53517927 -0.25390625 38.53125 C-2.07740601 38.52786621 -2.07740601 38.52786621 -3.93774414 38.52441406 C-6.96875 38.265625 -6.96875 38.265625 -9.96875 36.265625 C-10.27316916 33.66485148 -10.38892445 31.30579099 -10.3671875 28.703125 C-10.37005768 27.95603271 -10.37292786 27.20894043 -10.37588501 26.43920898 C-10.37792747 24.85887901 -10.37238481 23.27852387 -10.35986328 21.69824219 C-10.34381089 19.27481736 -10.35970439 16.85306026 -10.37890625 14.4296875 C-10.37692385 12.89582964 -10.37308023 11.36197282 -10.3671875 9.828125 C-10.37326019 9.10101318 -10.37933289 8.37390137 -10.3855896 7.62475586 C-10.35693359 5.58203125 -10.35693359 5.58203125 -9.96875 2.265625 C-6.27900862 -0.19420259 -4.40011906 0.00785335 0 0 Z " fill="#04259B" transform="translate(400.96875,223.734375)"/>
<path d="M0 0 C0.83917969 -0.00386719 1.67835938 -0.00773438 2.54296875 -0.01171875 C8.86486286 -0.002067 15.08943363 0.46502305 21.375 1.125 C21.39965098 6.09122349 21.41783649 11.05741166 21.42993164 16.02368164 C21.4349719 17.71444316 21.44180405 19.40520029 21.45043945 21.09594727 C21.46251857 23.52100707 21.46823123 25.94600944 21.47265625 28.37109375 C21.47781754 29.13151474 21.48297882 29.89193573 21.48829651 30.67539978 C21.48849238 32.4923257 21.43697277 34.30913127 21.375 36.125 C18.13825774 39.36174226 8.85099706 38.2554493 4.5 38.26171875 C3.5925 38.25785156 2.685 38.25398438 1.75 38.25 C0.37714844 38.25580078 0.37714844 38.25580078 -1.0234375 38.26171875 C-5.67105003 38.25500255 -10.05382664 38.08175721 -14.625 37.125 C-15.63074733 33.78416105 -15.75400115 30.73866603 -15.7578125 27.2578125 C-15.75910156 26.12472656 -15.76039063 24.99164063 -15.76171875 23.82421875 C-15.75785156 22.64472656 -15.75398437 21.46523437 -15.75 20.25 C-15.75386719 19.07824219 -15.75773438 17.90648437 -15.76171875 16.69921875 C-15.75978516 14.99572266 -15.75978516 14.99572266 -15.7578125 13.2578125 C-15.75612061 11.70924561 -15.75612061 11.70924561 -15.75439453 10.12939453 C-15.62202693 7.05596877 -15.19263758 4.14582402 -14.625 1.125 C-9.76498813 -0.13500308 -4.98219704 -0.02234169 0 0 Z " fill="#213EA3" transform="translate(151.625,223.875)"/>
<path d="M0 0 C1.08088614 0.00054477 2.16177229 0.00108953 3.27541256 0.00165081 C4.51359737 -0.00254368 5.75178219 -0.00673817 7.02748775 -0.01105976 C8.40708143 -0.0055759 9.78667432 0.00010709 11.16626644 0.00596905 C12.61319725 0.0048966 14.06012763 0.00295847 15.50705624 0.00021648 C19.44287206 -0.00464055 23.37857491 0.00303414 27.31437707 0.01316953 C31.4258892 0.02193466 35.53739763 0.02019289 39.6489172 0.01980877 C46.55331984 0.02074602 53.4576786 0.02943871 60.36206722 0.04307842 C68.35552022 0.0588108 76.34892515 0.06407635 84.3423925 0.06334287 C92.01933148 0.06273346 99.69625472 0.06783051 107.37318897 0.07613468 C110.64630856 0.07967394 113.91942258 0.08149884 117.19254398 0.08202839 C121.04285104 0.08302968 124.89311742 0.0891087 128.74341106 0.09919453 C130.16042806 0.1021262 131.57744973 0.10334356 132.99446964 0.10276699 C134.92080395 0.10227962 136.84713654 0.10852575 138.77345943 0.1151762 C139.85396855 0.11685205 140.93447767 0.11852789 142.04772949 0.12025452 C144.46094418 0.24888897 144.46094418 0.24888897 145.46094418 1.24888897 C145.61779973 2.64119187 145.71172066 4.04072251 145.77735043 5.44029522 C145.84019222 6.73483624 145.84019222 6.73483624 145.90430355 8.05552959 C145.94361996 8.96496319 145.98293636 9.87439678 146.02344418 10.81138897 C146.06662777 11.69375225 146.10981136 12.57611553 146.15430355 13.48521709 C146.27478753 16.07275403 146.37216499 18.66008782 146.46094418 21.24888897 C146.49300961 21.9718919 146.52507504 22.69489483 146.55811214 23.43980694 C146.68458034 28.07883925 145.80076256 31.83445653 144.46094418 36.24888897 C125.18141388 36.27221664 105.90188644 36.2898675 86.62234497 36.30070114 C77.67116036 36.30586438 68.7199845 36.3129076 59.7688055 36.32432842 C51.96984029 36.33427441 44.17088141 36.34074219 36.37191004 36.34297746 C32.23982232 36.34428472 28.10775274 36.34737148 23.97567081 36.35461903 C20.09092891 36.36137791 16.20621271 36.3635062 12.32146549 36.36199665 C10.89154579 36.36227304 9.46162527 36.36427895 8.03171062 36.36809444 C6.08776366 36.37302956 4.14380308 36.37128702 2.19985104 36.36914349 C1.10936994 36.37006528 0.01888884 36.37098707 -1.10463715 36.3719368 C-3.53905582 36.24888897 -3.53905582 36.24888897 -4.53905582 35.24888897 C-4.65228016 32.82398526 -4.70322458 30.42862035 -4.70702457 28.00279522 C-4.71035297 27.27648403 -4.71368137 26.55017284 -4.71711063 25.80185223 C-4.72218257 24.26263851 -4.72451888 22.72341377 -4.72435856 21.1841917 C-4.72654348 18.82471426 -4.74469148 16.46570536 -4.7636652 14.10631084 C-4.76659934 12.61347391 -4.768584 11.12063474 -4.76952457 9.62779522 C-4.77671009 8.91942013 -4.78389561 8.21104504 -4.79129887 7.48120403 C-4.75846513 0.46644484 -4.75846513 0.46644484 0 0 Z M-2.53905582 2.24888897 C-2.53905582 12.80888897 -2.53905582 23.36888897 -2.53905582 34.24888897 C15.94090479 34.2939942 34.42082101 34.33085383 52.90082264 34.35251331 C61.48094176 34.36283641 70.06102431 34.37691642 78.64111996 34.39976788 C86.11744273 34.41967019 93.59373903 34.43259788 101.07008755 34.43706596 C105.03064603 34.43967871 108.99112876 34.44584112 112.95166302 34.46034908 C116.67637829 34.47388318 120.40098631 34.47812012 124.12572384 34.47510433 C125.49556339 34.47565637 126.86540638 34.47965864 128.23522472 34.48729992 C130.09997903 34.49719536 131.96479036 34.49367911 133.829566 34.489398 C135.39753587 34.49216338 135.39753587 34.49216338 136.99718189 34.49498463 C139.63821244 34.49383741 139.63821244 34.49383741 141.46094418 32.24888897 C142.61366633 28.97306634 142.57619587 25.83822135 142.55860043 22.38951397 C142.55537777 21.27447491 142.55215511 20.15943584 142.5488348 19.01060772 C142.54045589 17.85174053 142.53207699 16.69287334 142.52344418 15.49888897 C142.5166766 13.73738506 142.5166766 13.73738506 142.5097723 11.94029522 C142.49799512 9.04310824 142.48154744 6.14602443 142.46094418 3.24888897 C130.49508711 3.11544454 118.52920141 2.98494055 106.56327629 2.85773754 C101.00107392 2.79852615 95.43888398 2.7384689 89.87671566 2.67613506 C59.0700726 2.33170403 28.2694901 2.18483979 -2.53905582 2.24888897 Z " fill="#5167AD" transform="translate(211.53905582427979,172.7511110305786)"/>
<path d="M0 0 C0.33 0 0.66 0 1 0 C1 28.38 1 56.76 1 86 C-26.72 86 -54.44 86 -83 86 C-82.96038631 108.33387429 -82.96038631 108.33387429 -82.90991211 130.66772461 C-82.90539551 134.97961426 -82.90539551 134.97961426 -82.90455627 136.99586487 C-82.90301703 138.40915745 -82.89949249 139.8224487 -82.89442444 141.23573303 C-82.88714452 143.37194107 -82.88609266 145.5080686 -82.88647461 147.64428711 C-82.884254 148.85007919 -82.88203339 150.05587128 -82.87974548 151.29820251 C-83 154 -83 154 -84 155 C-86.44387931 155.24348613 -88.86204886 155.42690632 -91.3125 155.5625 C-92.0336499 155.6042334 -92.7547998 155.6459668 -93.49780273 155.68896484 C-111.50420605 156.66573199 -111.50420605 156.66573199 -119 155 C-120.32849931 152.34300138 -120.12712909 150.33390159 -120.12939453 147.3581543 C-120.13254669 146.17058029 -120.13569885 144.98300629 -120.13894653 143.75944519 C-120.1369223 142.46082047 -120.13489807 141.16219574 -120.1328125 139.82421875 C-120.13348777 138.46165449 -120.13445964 137.09909034 -120.13571167 135.73652649 C-120.1371916 132.85713574 -120.13503362 129.97777584 -120.13037109 127.09838867 C-120.12590463 124.20611502 -120.1257103 121.31390417 -120.13037109 118.42163086 C-120.14260716 110.69373426 -120.12647275 102.96715973 -120.05083084 95.23957634 C-120.01757581 91.76622572 -119.99748811 88.2938907 -120.00817871 84.82037354 C-120.02012937 80.84448496 -119.97689474 76.87017776 -119.9296875 72.89453125 C-119.94121857 71.70856857 -119.95274963 70.5226059 -119.96463013 69.30070496 C-119.82638454 62.33455079 -118.8362135 58.50840654 -113.77894592 53.58659363 C-113.19189377 53.06301773 -112.60484161 52.53944183 -112 52 C-111.0381298 51.01511944 -110.08066244 50.0259078 -109.12890625 49.03125 C-108.28199219 48.1959375 -107.43507812 47.360625 -106.5625 46.5 C-105.69753906 45.6440625 -104.83257812 44.788125 -103.94140625 43.90625 C-103.30074219 43.2771875 -102.66007812 42.648125 -102 42 C-102 45.33057572 -102.37280012 45.84595178 -104.3125 48.375 C-105.90003337 50.48281742 -107.22986701 52.42142285 -108.5 54.75 C-110 57 -110 57 -112.625 58.5625 C-115.12779653 59.7314483 -115.12779653 59.7314483 -115.63854885 61.84860611 C-116.23841376 65.41906286 -116.17991042 69.01307405 -116.20532227 72.62402344 C-116.21522186 73.49267532 -116.22512146 74.36132721 -116.23532104 75.25630188 C-116.26687728 78.12396531 -116.29167027 80.9916453 -116.31640625 83.859375 C-116.33698085 85.84906441 -116.35797745 87.83874949 -116.37937927 89.82843018 C-116.43454768 95.06281024 -116.48398005 100.29722941 -116.53222656 105.53167725 C-116.58247976 110.87401811 -116.6381459 116.21630225 -116.69335938 121.55859375 C-116.800877 132.03901582 -116.90183593 142.51948614 -117 153 C-106.44 153 -95.88 153 -85 153 C-85.01160156 148.10285156 -85.02320313 143.20570313 -85.03515625 138.16015625 C-85.04026315 135.06575389 -85.04507694 131.9713567 -85.04882812 128.87695312 C-85.05481601 123.96068244 -85.06191484 119.04443031 -85.07543945 114.12817383 C-85.08627025 110.16653172 -85.09227724 106.20490948 -85.09487724 102.24325371 C-85.09673114 100.72851689 -85.1003511 99.21378121 -85.10573006 97.69905281 C-85.11294307 95.58458187 -85.11399083 93.47019406 -85.11352539 91.35571289 C-85.115746 90.14992081 -85.11796661 88.94412872 -85.12025452 87.70179749 C-85 85 -85 85 -84 84 C-81.38307723 83.90490302 -78.79274684 83.87445307 -76.17553711 83.88647461 C-74.92642091 83.88629381 -74.92642091 83.88629381 -73.65207005 83.88610935 C-70.94380122 83.88685856 -68.23560034 83.89448715 -65.52734375 83.90234375 C-63.86039259 83.90381314 -62.19344097 83.90483387 -60.52648926 83.90539551 C-54.33015249 83.91064869 -48.13382559 83.92460976 -41.9375 83.9375 C-28.098125 83.958125 -14.25875 83.97875 0 84 C0 56.28 0 28.56 0 0 Z " fill="#687EBA" transform="translate(256,54)"/>
<path d="M0 0 C1.25477646 -0.00960754 2.50955292 -0.01921509 3.80235291 -0.02911377 C5.18276794 -0.03396086 6.56318507 -0.03823991 7.94360352 -0.04199219 C9.34985864 -0.04774088 10.75611372 -0.05349864 12.16236877 -0.05926514 C15.11394619 -0.06978322 18.06549631 -0.0756207 21.01708984 -0.07910156 C24.80489008 -0.08459054 28.59233159 -0.10862328 32.38001919 -0.13707352 C35.28559941 -0.15566823 38.19109266 -0.16090377 41.09672737 -0.16243744 C42.49342881 -0.1654713 43.89012846 -0.17352443 45.28677177 -0.18662262 C47.23798433 -0.20361649 49.18934399 -0.19996776 51.140625 -0.1953125 C52.2523558 -0.19895813 53.36408661 -0.20260376 54.50950623 -0.20635986 C55.37592239 -0.08508728 56.24233856 0.0361853 57.13500977 0.16113281 C59.63079377 3.90480882 59.39294761 5.91233793 59.40063477 10.38378906 C59.40254822 11.08507431 59.40446167 11.78635956 59.40643311 12.50889587 C59.40779243 13.98908854 59.40411359 15.46929322 59.39575195 16.94946289 C59.38503232 19.21885825 59.39566346 21.48746492 59.40844727 23.75683594 C59.40712594 25.19498873 59.4045641 26.63314103 59.40063477 28.07128906 C59.39837891 29.38234619 59.39612305 30.69340332 59.39379883 32.04418945 C59.13500977 35.16113281 59.13500977 35.16113281 57.13500977 37.16113281 C54.50950623 37.40837097 54.50950623 37.40837097 51.140625 37.40405273 C49.88269638 37.40712936 48.62476776 37.41020599 47.32872009 37.41337585 C45.95034605 37.40647863 44.57197381 37.39921171 43.19360352 37.39160156 C41.78638247 37.39040986 40.37916062 37.38995658 38.97193909 37.39021301 C36.02209498 37.38864794 33.07237219 37.3803558 30.12255859 37.36694336 C26.33369148 37.34993785 22.54495759 37.34612944 18.75605679 37.34688854 C15.85051695 37.34661718 12.94500648 37.34114174 10.03947639 37.3338871 C8.64197067 37.33069615 7.24446161 37.32873204 5.84695244 37.32799339 C3.89795619 37.32583523 1.94897225 37.31630594 0 37.30639648 C-1.11093521 37.30258469 -2.22187042 37.29877289 -3.36647034 37.29484558 C-5.86499023 37.16113281 -5.86499023 37.16113281 -6.86499023 36.16113281 C-6.96590499 33.57923835 -7.00470522 31.02466781 -6.99780273 28.44238281 C-6.99875946 27.66930786 -6.99971619 26.89623291 -7.0007019 26.09973145 C-7.00138364 24.46215738 -6.9995298 22.82458062 -6.99536133 21.18701172 C-6.99001295 18.67181361 -6.9953065 16.15679408 -7.00170898 13.64160156 C-7.0010482 12.05436158 -6.99976704 10.46712171 -6.99780273 8.87988281 C-6.99982697 8.12259888 -7.0018512 7.36531494 -7.00393677 6.58508301 C-6.97415159 -0.00495975 -6.45122854 0.03965038 0 0 Z M-4.86499023 3.16113281 C-4.86499023 13.39113281 -4.86499023 23.62113281 -4.86499023 34.16113281 C15.26500977 34.16113281 35.39500977 34.16113281 56.13500977 34.16113281 C56.13500977 23.93113281 56.13500977 13.70113281 56.13500977 3.16113281 C36.00500977 3.16113281 15.87500977 3.16113281 -4.86499023 3.16113281 Z " fill="#6479B9" transform="translate(298.864990234375,102.8388671875)"/>
<path d="M0 0 C0.67671753 -0.00191345 1.35343506 -0.0038269 2.05065918 -0.00579834 C3.47957736 -0.00715765 4.90850799 -0.00347894 6.33740234 0.00488281 C8.52339441 0.01558654 10.70856472 0.00497956 12.89453125 -0.0078125 C14.28385598 -0.00649086 15.6731802 -0.00392837 17.0625 0 C18.32642578 0.00225586 19.59035156 0.00451172 20.89257812 0.00683594 C24.03125 0.265625 24.03125 0.265625 27.03125 2.265625 C27.29822888 4.89024744 27.37957984 7.27628433 27.32421875 9.8984375 C27.31997391 10.65027313 27.31572906 11.40210876 27.31135559 12.17672729 C27.2945417 14.58172185 27.25688624 16.98588309 27.21875 19.390625 C27.20370659 21.01951916 27.19001758 22.64842644 27.17773438 24.27734375 C27.14462954 28.27375934 27.09283009 32.26955082 27.03125 36.265625 C23.42152117 38.52373771 20.38679794 38.52345753 16.18359375 38.53125 C15.53048721 38.53316345 14.87738068 38.5350769 14.20448303 38.53704834 C12.82861952 38.5384052 11.45274298 38.53474368 10.0769043 38.52636719 C7.97220142 38.51564259 5.86834865 38.52628753 3.76367188 38.5390625 C2.42447729 38.53774115 1.08528323 38.53517927 -0.25390625 38.53125 C-2.07740601 38.52786621 -2.07740601 38.52786621 -3.93774414 38.52441406 C-6.96875 38.265625 -6.96875 38.265625 -9.96875 36.265625 C-10.27316916 33.66485148 -10.38892445 31.30579099 -10.3671875 28.703125 C-10.37005768 27.95603271 -10.37292786 27.20894043 -10.37588501 26.43920898 C-10.37792747 24.85887901 -10.37238481 23.27852387 -10.35986328 21.69824219 C-10.34381089 19.27481736 -10.35970439 16.85306026 -10.37890625 14.4296875 C-10.37692385 12.89582964 -10.37308023 11.36197282 -10.3671875 9.828125 C-10.37326019 9.10101318 -10.37933289 8.37390137 -10.3855896 7.62475586 C-10.35693359 5.58203125 -10.35693359 5.58203125 -9.96875 2.265625 C-6.27900862 -0.19420259 -4.40011906 0.00785335 0 0 Z M-5.96875 4.265625 C-5.99340746 8.3773506 -6.01158959 12.48904778 -6.02368164 16.60083008 C-6.0287208 18.00057728 -6.03555216 19.4003192 -6.04418945 20.80004883 C-6.0562732 22.80808277 -6.06144807 24.81615457 -6.06640625 26.82421875 C-6.07164307 28.03392334 -6.07687988 29.24362793 -6.08227539 30.48999023 C-6.28650285 33.17374517 -6.28650285 33.17374517 -4.96875 34.265625 C-0.49543042 34.51942734 3.9890846 34.45085221 8.46875 34.453125 C9.73525391 34.46537109 11.00175781 34.47761719 12.30664062 34.49023438 C13.51384766 34.49216797 14.72105469 34.49410156 15.96484375 34.49609375 C17.07915771 34.50020264 18.19347168 34.50431152 19.34155273 34.50854492 C22.18246961 34.54149672 22.18246961 34.54149672 24.03125 32.265625 C24.32645182 29.46552479 24.32645182 29.46552479 24.26171875 26.19921875 C24.25978516 24.99201172 24.25785156 23.78480469 24.25585938 22.54101562 C24.23749023 20.64125977 24.23749023 20.64125977 24.21875 18.703125 C24.2177832 16.79756836 24.2177832 16.79756836 24.21679688 14.85351562 C24.74438043 9.18477007 24.74438043 9.18477007 23.03125 4.265625 C20.88566173 4.17786895 18.73720579 4.15867281 16.58984375 4.16796875 C15.28466797 4.17119141 13.97949219 4.17441406 12.63476562 4.17773438 C11.2460931 4.18609099 9.85742123 4.19455595 8.46875 4.203125 C7.07617344 4.20813834 5.68359519 4.21270153 4.29101562 4.21679688 C0.8710513 4.22863066 -2.54882844 4.2451162 -5.96875 4.265625 Z " fill="#5E74B6" transform="translate(400.96875,223.734375)"/>
<path d="M0 0 C48.18 0 96.36 0 146 0 C146 10.89 146 21.78 146 33 C97.82 33 49.64 33 0 33 C0 32.67 0 32.34 0 32 C47.19 31.67 94.38 31.34 143 31 C147.32563419 22.34873163 144 11.67241209 144 2 C73.215 1.505 73.215 1.505 1 1 C1 10.57 1 20.14 1 30 C0.67 30 0.34 30 0 30 C0 20.1 0 10.2 0 0 Z " fill="#152E85" transform="translate(209,244)"/>
<path d="M0 0 C0.73541016 0.00202423 1.47082031 0.00404846 2.22851562 0.00613403 C2.97939453 0.00517731 3.73027344 0.00422058 4.50390625 0.00323486 C6.09440189 0.00255315 7.6849003 0.00440682 9.27539062 0.00857544 C11.71816217 0.01392386 14.16074984 0.00863019 16.60351562 0.00222778 C18.1451827 0.00288857 19.68684966 0.00416973 21.22851562 0.00613403 C21.96392578 0.0041098 22.69933594 0.00208557 23.45703125 0 C28.61356402 0.02399493 28.61356402 0.02399493 29.72851562 1.13894653 C29.91013326 3.21720642 30.02919046 5.30097212 30.12304688 7.38504028 C30.1889502 8.6886853 30.25485352 9.99233032 30.32275391 11.33547974 C30.35757874 12.02807892 30.39240356 12.7206781 30.42828369 13.43426514 C31.40797244 32.0507383 33.99080967 47.64089532 42.11914062 64.54129028 C43.72851562 68.13894653 43.72851562 68.13894653 43.72851562 71.13894653 C40.90994936 69.43297222 39.02856541 68.1367865 38.05664062 64.90457153 C37.75988493 63.29799762 37.50051443 61.68396201 37.28320312 60.06472778 C37.10015625 59.42921997 36.91710937 58.79371216 36.72851562 58.13894653 C35.73851562 57.80894653 34.74851563 57.47894653 33.72851562 57.13894653 C31.73348967 51.15386867 31.06623312 44.92718831 30.23632812 38.68972778 C29.79675081 35.61606796 29.22124868 32.61725927 28.60351562 29.57644653 C27.0270089 20.54848224 27.61160996 11.25758872 27.72851562 2.13894653 C16.83851563 2.13894653 5.94851562 2.13894653 -5.27148438 2.13894653 C-5.14773437 6.11957153 -5.02398437 10.10019653 -4.89648438 14.20144653 C-4.86248535 15.44289429 -4.82848633 16.68434204 -4.79345703 17.96340942 C-4.54876494 24.81866313 -3.84750333 30.33315261 -1.21679688 36.68582153 C1.72622581 44.32308702 2.00303314 53.04067981 1.72851562 61.13894653 C-8.15362639 46.31573351 -9.05209799 18.30010736 -6.27148438 1.13894653 C-4.53855458 -0.59398326 -2.30934102 0.01074607 0 0 Z " fill="#798EC6" transform="translate(143.271484375,276.8610534667969)"/>
<path d="M0 0 C47.19 0 94.38 0 143 0 C143 0.33 143 0.66 143 1 C96.14 1 49.28 1 1 1 C1.33 10.57 1.66 20.14 2 30 C48.53 30 95.06 30 143 30 C143 30.33 143 30.66 143 31 C95.48 31 47.96 31 -1 31 C-0.67 20.77 -0.34 10.54 0 0 Z " fill="#07228D" transform="translate(210,245)"/>
<path d="M0 0 C4.80548597 -0.04936883 9.61082494 -0.08570443 14.41650391 -0.10986328 C16.05194672 -0.11993254 17.68737149 -0.13358881 19.32275391 -0.15087891 C21.6709437 -0.17508705 24.01889588 -0.18647357 26.3671875 -0.1953125 C27.10057343 -0.20563507 27.83395935 -0.21595764 28.58956909 -0.22659302 C30.39462697 -0.22699368 32.1990783 -0.12212755 34 0 C36.49016504 2.49016504 36.25659165 3.26493344 36.265625 6.69921875 C36.27142578 8.13285767 36.27142578 8.13285767 36.27734375 9.59545898 C36.26832031 10.61583252 36.25929688 11.63620605 36.25 12.6875 C36.24613281 13.72011963 36.24226563 14.75273926 36.23828125 15.81665039 C36.14636488 24.01699484 35.42859001 31.92591537 34 40 C33.67 40 33.34 40 33 40 C32.81946989 27.30271571 33.3995815 14.68384078 34 2 C23.11 2 12.22 2 1 2 C1.04125 5.3825 1.0825 8.765 1.125 12.25 C1.26132904 38.21601289 1.26132904 38.21601289 -2 48 C-2.99 48 -3.98 48 -5 48 C-5.12117188 48.63808594 -5.24234375 49.27617187 -5.3671875 49.93359375 C-5.53476562 50.75988281 -5.70234375 51.58617187 -5.875 52.4375 C-6.03742188 53.26121094 -6.19984375 54.08492188 -6.3671875 54.93359375 C-6.57601563 55.61550781 -6.78484375 56.29742187 -7 57 C-7.99 57.495 -7.99 57.495 -9 58 C-8.81824219 57.34515625 -8.63648438 56.6903125 -8.44921875 56.015625 C-7.05058558 50.93751071 -5.68279073 45.85231656 -4.375 40.75 C-4.13523437 39.81671875 -3.89546875 38.8834375 -3.6484375 37.921875 C-1.67892952 29.04722457 -1.65883238 20.1260385 -1.39453125 11.07617188 C-1.35714844 9.94115234 -1.31976563 8.80613281 -1.28125 7.63671875 C-1.23581055 6.08537231 -1.23581055 6.08537231 -1.18945312 4.50268555 C-1 2 -1 2 0 0 Z " fill="#7D91C9" transform="translate(392,277)"/>
<path d="M0 0 C61.05 0 122.1 0 185 0 C185 0.33 185 0.66 185 1 C183.60767513 1.00358253 183.60767513 1.00358253 182.18722248 1.00723743 C159.61162419 1.06600704 137.03613285 1.14187411 114.46065235 1.23571491 C103.54335812 1.28069878 92.62609671 1.32010748 81.70874023 1.34643555 C72.19423403 1.36939463 62.67983143 1.40276924 53.16540736 1.44870156 C48.12662665 1.47266196 43.08794873 1.49137228 38.04911232 1.49761391 C33.30735463 1.50365201 28.56586006 1.52360567 23.82419968 1.55427551 C22.083144 1.5630762 20.34205397 1.56677413 18.60097694 1.56500816 C16.22459029 1.56335871 13.84900884 1.58002588 11.47273254 1.60127258 C10.78303511 1.59642501 10.09333768 1.59157743 9.38274032 1.58658296 C5.08974602 1.64997102 2.41131325 2.3769947 -1 5 C-3.29582863 8.06717124 -3.29582863 8.06717124 -5 11 C-5.99 10.34 -6.98 9.68 -8 9 C-7.50628906 8.51789062 -7.01257813 8.03578125 -6.50390625 7.5390625 C-5.86324219 6.90742188 -5.22257813 6.27578125 -4.5625 5.625 C-3.92441406 4.99851562 -3.28632813 4.37203125 -2.62890625 3.7265625 C-0.92117824 2.08276939 -0.92117824 2.08276939 0 0 Z " fill="#09248A" transform="translate(230,21)"/>
<path d="M0 0 C0.84291332 2.39003272 1.15384404 3.5854308 0.2578125 6 C-0.11601562 6.66 -0.48984375 7.32 -0.875 8 C-2.36369506 10.66507647 -3.37155174 13.00484233 -4 16 C-4.99 16 -5.98 16 -7 16 C-7.495 18.475 -7.495 18.475 -8 21 C-8.66 21 -9.32 21 -10 21 C-10.33 22.98 -10.66 24.96 -11 27 C-11.99 27.33 -12.98 27.66 -14 28 C-14.33 29.65 -14.66 31.3 -15 33 C-15.61875 33.0825 -16.2375 33.165 -16.875 33.25 C-19.18437567 33.81258459 -19.18437567 33.81258459 -20.25 36.0625 C-20.4975 36.701875 -20.745 37.34125 -21 38 C-21.66 38 -22.32 38 -23 38 C-23.185625 38.556875 -23.37125 39.11375 -23.5625 39.6875 C-27.38461044 45.83611245 -35.13178939 49.09467411 -41.9375 50.6875 C-42.9584375 50.8421875 -42.9584375 50.8421875 -44 51 C-41.24598302 48.09368715 -38.44306738 45.85385377 -35.125 43.625 C-19.52659724 32.35832992 -7.84271573 17.54291676 0 0 Z " fill="#4057A7" transform="translate(382,335)"/>
<path d="M0 0 C0.33 0 0.66 0 1 0 C-0.00898371 18.83436258 -9.25694696 38.7582935 -20 54 C-21.34887762 51.30224476 -20.70300484 49.88231982 -20 47 C-19.67 46.01 -19.34 45.02 -19 44 C-18.01 44 -17.02 44 -16 44 C-16.04640625 43.29359375 -16.0928125 42.5871875 -16.140625 41.859375 C-15.97699033 38.53213669 -15.11058333 36.2826255 -13.75 33.25 C-13.33234375 32.28578125 -12.9146875 31.3215625 -12.484375 30.328125 C-11 28 -11 28 -8.90722656 27.35449219 C-8.2778418 27.23750977 -7.64845703 27.12052734 -7 27 C-6.91363281 25.80503906 -6.82726562 24.61007812 -6.73828125 23.37890625 C-5.35827938 6.99439522 -5.35827938 6.99439522 0 0 Z " fill="#3C54A3" transform="translate(424,317)"/>
<path d="M0 0 C20.13 0 40.26 0 61 0 C61 10.23 61 20.46 61 31 C59.02 31 57.04 31 55 31 C55 30.67 55 30.34 55 30 C56.65 30 58.3 30 60 30 C60 20.43 60 10.86 60 1 C52.73943507 1.08848668 45.47932364 1.17877418 38.21910095 1.28729248 C34.83832827 1.33728149 31.45758949 1.3837734 28.07666016 1.421875 C24.19935371 1.46737328 20.32240948 1.52539279 16.4453125 1.5859375 C14.6233989 1.60326431 14.6233989 1.60326431 12.76467896 1.62094116 C11.08316238 1.6507457 11.08316238 1.6507457 9.36767578 1.68115234 C7.88208664 1.70113785 7.88208664 1.70113785 6.3664856 1.7215271 C3.81264305 1.77427446 3.81264305 1.77427446 2 4 C1.72138603 6.81711479 1.72138603 6.81711479 1.8046875 10.1015625 C1.81113281 11.31328125 1.81757813 12.525 1.82421875 13.7734375 C1.84097656 15.04445313 1.85773438 16.31546875 1.875 17.625 C1.88402344 18.90375 1.89304687 20.1825 1.90234375 21.5 C1.92597697 24.66685167 1.95892371 27.83333424 2 31 C1.34 31 0.68 31 0 31 C0 20.77 0 10.54 0 0 Z " fill="#09248D" transform="translate(294,106)"/>
<path d="M0 0 C1.258125 -0.020625 2.51625 -0.04125 3.8125 -0.0625 C4.52019531 -0.07410156 5.22789062 -0.08570313 5.95703125 -0.09765625 C8 0 8 0 11 1 C14.22316824 1.27110761 17.4461383 1.44479501 20.67578125 1.62109375 C24 2 24 2 26.65161133 3.01147461 C30.83829003 4.24748351 34.56168107 4.2512541 38.8984375 4.1953125 C39.73339752 4.1924826 40.56835754 4.18965271 41.42861938 4.18673706 C44.07756291 4.17560301 46.72615984 4.15051127 49.375 4.125 C51.17838051 4.11496143 52.98176636 4.10583712 54.78515625 4.09765625 C59.19023633 4.0756859 63.59505953 4.04120321 68 4 C68 4.33 68 4.66 68 5 C44.76154194 8.8904444 22.69556869 6.85142322 0 1 C0 0.67 0 0.34 0 0 Z " fill="#6579B9" transform="translate(240,430)"/>
<path d="M0 0 C10.89 0 21.78 0 33 0 C33 7.59 33 15.18 33 23 C32.67 23 32.34 23 32 23 C31.67 15.74 31.34 8.48 31 1 C26.8955864 1.14050068 22.79155475 1.2871601 18.6875 1.4375 C17.52025391 1.47681641 16.35300781 1.51613281 15.15039062 1.55664062 C14.03212891 1.59853516 12.91386719 1.64042969 11.76171875 1.68359375 C10.2142395 1.73858032 10.2142395 1.73858032 8.63549805 1.79467773 C5.89251742 1.90161242 5.89251742 1.90161242 3 3 C2.9498877 3.65073486 2.89977539 4.30146973 2.84814453 4.97192383 C2.61607955 7.91957011 2.37069779 10.86596009 2.125 13.8125 C2.04636719 14.83666016 1.96773438 15.86082031 1.88671875 16.91601562 C1.80292969 17.89892578 1.71914063 18.88183594 1.6328125 19.89453125 C1.55949707 20.80050049 1.48618164 21.70646973 1.41064453 22.63989258 C1 25 1 25 -1 28 C-0.67 18.76 -0.34 9.52 0 0 Z " fill="#112A89" transform="translate(393,279)"/>
<path d="M0 0 C0.99 0 1.98 0 3 0 C3.02886751 4.14581887 3.04675327 8.29161216 3.0625 12.4375 C3.07087891 13.62150391 3.07925781 14.80550781 3.08789062 16.02539062 C3.09272461 17.71245117 3.09272461 17.71245117 3.09765625 19.43359375 C3.10551147 20.99678345 3.10551147 20.99678345 3.11352539 22.59155273 C3 25 3 25 2 26 C0.14630389 26.08737645 -1.71067541 26.10698153 -3.56640625 26.09765625 C-4.69111328 26.09443359 -5.81582031 26.09121094 -6.97460938 26.08789062 C-8.15861328 26.07951172 -9.34261719 26.07113281 -10.5625 26.0625 C-11.75037109 26.05798828 -12.93824219 26.05347656 -14.16210938 26.04882812 C-17.10812226 26.03699675 -20.05403681 26.02051287 -23 26 C-23 25.01 -23 24.02 -23 23 C-22.37738281 23.16371094 -21.75476563 23.32742187 -21.11328125 23.49609375 C-16.79307618 24.19534902 -12.55543955 24.10484393 -8.1875 24.0625 C-7.30384766 24.05798828 -6.42019531 24.05347656 -5.50976562 24.04882812 C-3.33981441 24.03709866 -1.16989828 24.01916495 1 24 C1.02901394 20.5625177 1.04680335 17.12506688 1.0625 13.6875 C1.07087891 12.71103516 1.07925781 11.73457031 1.08789062 10.72851562 C1.09111328 9.79072266 1.09433594 8.85292969 1.09765625 7.88671875 C1.10289307 7.02264404 1.10812988 6.15856934 1.11352539 5.26831055 C1.09335523 2.83271286 1.09335523 2.83271286 0 0 Z " fill="#93A9DD" transform="translate(220,79)"/>
<path d="M0 0 C15.51 0 31.02 0 47 0 C47 0.33 47 0.66 47 1 C32.15 1.33 17.3 1.66 2 2 C2 11.9 2 21.8 2 32 C1.34 32 0.68 32 0 32 C0 21.44 0 10.88 0 0 Z " fill="#0C278A" transform="translate(209,175)"/>
<path d="M0 0 C1.32 0.33 2.64 0.66 4 1 C0.02836944 9.94662041 -7.99896403 17.34233909 -15 24 C-15.66 23.67 -16.32 23.34 -17 23 C-15.68 21.35 -14.36 19.7 -13 18 C-13.66 17.67 -14.32 17.34 -15 17 C-14.01 17 -13.02 17 -12 17 C-11.67 15.68 -11.34 14.36 -11 13 C-10.34 13 -9.68 13 -9 13 C-8.34 11.68 -7.68 10.36 -7 9 C-5.68 9 -4.36 9 -3 9 C-3 7.68 -3 6.36 -3 5 C-2.34 5 -1.68 5 -1 5 C-0.67 3.35 -0.34 1.7 0 0 Z " fill="#566BB4" transform="translate(395,376)"/>
<path d="M0 0 C0.81855469 0.144375 1.63710937 0.28875 2.48046875 0.4375 C16.59796049 2.57966945 30.75788625 2.1877002 45 2 C44.67 2.66 44.34 3.32 44 4 C30.38811669 6.4185123 14.13923902 6.61992598 1 2 C0.67 1.34 0.34 0.68 0 0 Z " fill="#4E67AD" transform="translate(254,398)"/>
<path d="M0 0 C4.75891138 -0.23214202 8.4651147 0.5926218 13 2 C19.22959431 3.83901967 24.77158897 4.28170574 31.25 4.1875 C32.16934326 4.18105469 33.08868652 4.17460937 34.03588867 4.16796875 C40.72761909 4.09254905 47.34877404 3.77115663 54 3 C53.67 3.66 53.34 4.32 53 5 C36.27017729 7.67884558 17.05989905 7.92249305 1 2 C0.67 1.34 0.34 0.68 0 0 Z " fill="#0B2689" transform="translate(248,398)"/>
<path d="M0 0 C0.66 0.33 1.32 0.66 2 1 C-1.06032459 2.62912132 -4.12363037 4.252557 -7.1875 5.875 C-8.48397461 6.56529297 -8.48397461 6.56529297 -9.80664062 7.26953125 C-10.64775391 7.71425781 -11.48886719 8.15898437 -12.35546875 8.6171875 C-13.51018677 9.22989502 -13.51018677 9.22989502 -14.68823242 9.85498047 C-21.42495433 13.19168189 -21.42495433 13.19168189 -25 12 C-25 11.34 -25 10.68 -25 10 C-22.09399739 8.74335022 -20.20395416 8 -17 8 C-17 7.34 -17 6.68 -17 6 C-12.03144513 3.72274568 -7.3154969 2.26130435 -2 1 C-1.34 0.67 -0.68 0.34 0 0 Z " fill="#556AAF" transform="translate(356,415)"/>
<path d="M0 0 C2 2 2 2 2 5 C2.66 5 3.32 5 4 5 C5.34242421 7.93342898 6.67234067 10.87236252 8 13.8125 C8.57234375 15.06256836 8.57234375 15.06256836 9.15625 16.33789062 C9.5171875 17.14033203 9.878125 17.94277344 10.25 18.76953125 C10.58515625 19.50792236 10.9203125 20.24631348 11.265625 21.00708008 C12 23 12 23 12 26 C9.18143374 24.29402568 7.30004978 22.99783997 6.328125 19.765625 C6.03136931 18.15905109 5.7719988 16.54501547 5.5546875 14.92578125 C5.28011719 13.97251953 5.28011719 13.97251953 5 13 C4.01 12.67 3.02 12.34 2 12 C0.65743047 7.68964518 0 4.52218352 0 0 Z " fill="#3D54A6" transform="translate(175,322)"/>
<path d="M0 0 C0 3.33057572 -0.37280012 3.84595178 -2.3125 6.375 C-3.90003337 8.48281742 -5.22986701 10.42142285 -6.5 12.75 C-8.29690875 15.44536313 -10.19583515 16.45032995 -13 18 C-13.33 18.66 -13.66 19.32 -14 20 C-14.66 20 -15.32 20 -16 20 C-15.48514682 15.96342918 -14.53647628 14.04785523 -11.62109375 11.23046875 C-10.94755859 10.56982422 -10.27402344 9.90917969 -9.58007812 9.22851562 C-8.87302734 8.55498047 -8.16597656 7.88144531 -7.4375 7.1875 C-6.72658203 6.49462891 -6.01566406 5.80175781 -5.28320312 5.08789062 C-3.53081688 3.3825483 -1.76978531 1.68724824 0 0 Z " fill="#4D63AD" transform="translate(154,96)"/>
<path d="M0 0 C2.85479387 1.42739693 3.00054646 3.00989932 4 6 C5.53929938 13.33542669 6.2536724 20.51666419 6 28 C3.7243713 24.58655696 2.84579373 21.29779913 1.875 17.375 C1.69614258 16.66021484 1.51728516 15.94542969 1.33300781 15.20898438 C0.09821503 10.02050271 -0.38183783 5.34572967 0 0 Z " fill="#475EA8" transform="translate(139,310)"/>
<path d="M0 0 C2.125 0.375 2.125 0.375 4 1 C3.67 1.33 3.34 1.66 3 2 C3.86625 2.268125 4.7325 2.53625 5.625 2.8125 C10.11209159 4.39129148 14.04478926 6.36319284 18 9 C18 9.99 18 10.98 18 12 C13.08558588 10.56347895 8.99761642 8.45840385 4.625 5.875 C3.98433594 5.50246094 3.34367188 5.12992187 2.68359375 4.74609375 C1.11951523 3.83565998 -0.44065534 2.91851809 -2 2 C-1.34 1.34 -0.68 0.68 0 0 Z " fill="#445CA5" transform="translate(205,412)"/>
<path d="M0 0 C2.475 0.495 2.475 0.495 5 1 C6.125 4.75 6.125 4.75 5 7 C5.66 7 6.32 7 7 7 C7 7.66 7 8.32 7 9 C7.99 9.33 8.98 9.66 10 10 C10 10.66 10 11.32 10 12 C10.99 12.33 11.98 12.66 13 13 C13.59732819 15.76264289 14 18.16032769 14 21 C0 4.40740741 0 4.40740741 0 0 Z " fill="#6075B8" transform="translate(158,366)"/>
<path d="M0 0 C0.33 0 0.66 0 1 0 C1.23268915 6.28260706 0.40454548 11.88019467 -1 18 C-1.99 18 -2.98 18 -4 18 C-4.12117188 18.63808594 -4.24234375 19.27617187 -4.3671875 19.93359375 C-4.53476562 20.75988281 -4.70234375 21.58617187 -4.875 22.4375 C-5.03742188 23.26121094 -5.19984375 24.08492188 -5.3671875 24.93359375 C-5.57601563 25.61550781 -5.78484375 26.29742187 -6 27 C-6.66 27.33 -7.32 27.66 -8 28 C-7.81824219 27.34515625 -7.63648438 26.6903125 -7.44921875 26.015625 C-5.52672958 19.03551046 -3.72994005 12.0301819 -2 5 C-1.34 5 -0.68 5 0 5 C0 3.35 0 1.7 0 0 Z " fill="#566BB3" transform="translate(391,307)"/>
<path d="M0 0 C-3.9700218 4.21814817 -8.30840284 7.61227103 -13 11 C-13.66 10.67 -14.32 10.34 -15 10 C-14.43061518 6.69756805 -13.63383789 5.08890591 -11 3 C-7.16534395 0.74922362 -4.46435025 -0.39391326 0 0 Z " fill="#374EA2" transform="translate(376,402)"/>
<path d="M0 0 C0.33 0.66 0.66 1.32 1 2 C1.66 2 2.32 2 3 2 C3.99 4.97 4.98 7.94 6 11 C6.66 11 7.32 11 8 11 C8.19335938 11.72445313 8.38671875 12.44890625 8.5859375 13.1953125 C9.92860286 18.18045615 11.28749486 23.12594691 13 28 C9.20030064 24.55136723 7.51944126 20.2703785 5.375 15.6875 C4.76398438 14.42389648 4.76398438 14.42389648 4.140625 13.13476562 C2.07294662 8.75635396 0.46208586 4.88376957 0 0 Z " fill="#6277B7" transform="translate(145,338)"/>
<path d="M0 0 C0.99 0 1.98 0 3 0 C0.37198148 6.45059091 -5.7973243 10.6369492 -11 15 C-11 13.35 -11 11.7 -11 10 C-10.01 10 -9.02 10 -8 10 C-7.34 8.68 -6.68 7.36 -6 6 C-5.01 6 -4.02 6 -3 6 C-3 5.01 -3 4.02 -3 3 C-2.01 3 -1.02 3 0 3 C0 2.01 0 1.02 0 0 Z " fill="#39509F" transform="translate(217,80)"/>
<path d="M0 0 C3.78471745 1.36087336 6.8006692 3.09321666 10.0625 5.4375 C10.89910156 6.03433594 11.73570312 6.63117188 12.59765625 7.24609375 C14.74503234 8.81385288 16.87830872 10.39770659 19 12 C11.51685393 10.58426966 11.51685393 10.58426966 9.5625 8.375 C9.046875 7.92125 8.53125 7.4675 8 7 C5.83700789 7.22757731 5.83700789 7.22757731 4 8 C4 7.34 4 6.68 4 6 C3.34 6 2.68 6 2 6 C0 3 0 3 0 0 Z " fill="#556CB5" transform="translate(214,378)"/>
<path d="M0 0 C0.33 0 0.66 0 1 0 C0.67 3.63 0.34 7.26 0 11 C-0.66 11 -1.32 11 -2 11 C-2.226875 12.216875 -2.45375 13.43375 -2.6875 14.6875 C-3.72609696 18.95560284 -5.615968 21.15028884 -9 24 C-7.506815 19.34732209 -5.77617715 14.83537737 -3.9375 10.3125 C-1.85964819 5.19753764 -1.85964819 5.19753764 0 0 Z " fill="#0B278A" transform="translate(387,325)"/>
<path d="M0 0 C0.84291332 2.39003272 1.15384404 3.5854308 0.2578125 6 C-0.11601562 6.66 -0.48984375 7.32 -0.875 8 C-2.36369506 10.66507647 -3.37155174 13.00484233 -4 16 C-4.99 16 -5.98 16 -7 16 C-7.33 17.65 -7.66 19.3 -8 21 C-8.99 21 -9.98 21 -11 21 C-9.66959987 17.42892597 -8.07110473 14.29773358 -6.0625 11.0625 C-3.84839123 7.44088932 -1.81636876 3.83455628 0 0 Z " fill="#6478BA" transform="translate(382,335)"/>
<path d="M0 0 C6.37732315 1.87724961 12.70695459 3.85671642 19 6 C19 6.33 19 6.66 19 7 C17.41705218 7.05437607 15.83355744 7.09296271 14.25 7.125 C13.36828125 7.14820313 12.4865625 7.17140625 11.578125 7.1953125 C8.84649454 6.9883708 7.34871527 6.35349694 5 5 C3.33859237 4.32033324 1.67299959 3.65061095 0 3 C0 2.01 0 1.02 0 0 Z " fill="#465BA8" transform="translate(235,391)"/>
<path d="M0 0 C1.66666667 1.66666667 3.33333333 3.33333333 5 5 C5.598125 5.556875 6.19625 6.11375 6.8125 6.6875 C8 8 8 8 8 10 C3.59885603 9.49701212 1.28804981 7.91227269 -2 5 C-1.34 3.35 -0.68 1.7 0 0 Z " fill="#3A51A7" transform="translate(194,357)"/>
<path d="M0 0 C1 2 1 2 0.5625 4.875 C-1.58069225 9.16138449 -4.54500937 10.50030018 -9 12 C-9.99 12 -10.98 12 -12 12 C-8.04 8.04 -4.08 4.08 0 0 Z " fill="#142E8C" transform="translate(198,54)"/>
<path d="M0 0 C0.33 0 0.66 0 1 0 C0.47458553 7.7498635 -1.55591476 14.6450086 -4 22 C-5.03159626 18.90521121 -4.97482862 17.47368607 -4.5625 14.3125 C-4.46066406 13.50425781 -4.35882813 12.69601562 -4.25390625 11.86328125 C-4.17011719 11.24839844 -4.08632813 10.63351562 -4 10 C-3.34 10 -2.68 10 -2 10 C-1.93941406 9.36191406 -1.87882812 8.72382813 -1.81640625 8.06640625 C-1.73261719 7.24011719 -1.64882813 6.41382813 -1.5625 5.5625 C-1.48128906 4.73878906 -1.40007812 3.91507812 -1.31640625 3.06640625 C-1 1 -1 1 0 0 Z " fill="#7189C2" transform="translate(424,317)"/>
<path d="M0 0 C0.89460937 0.19335938 1.78921875 0.38671875 2.7109375 0.5859375 C9.79706569 2.11194805 16.88651064 3.60680508 24 5 C24 5.33 24 5.66 24 6 C16.16662649 6.40517449 8.46943837 5.49323286 1 3 C0.67 2.01 0.34 1.02 0 0 Z " fill="#0D288C" transform="translate(236,426)"/>
<path d="M0 0 C5.67276511 -0.29341888 8.99067246 -0.00559652 14 3 C14 3.66 14 4.32 14 5 C14.99 5.33 15.98 5.66 17 6 C10.81839396 5.46246904 5.673142 3.45417612 0 1 C0 0.67 0 0.34 0 0 Z " fill="#5971B2" transform="translate(223,424)"/>
<path d="M0 0 C0.66 0.33 1.32 0.66 2 1 C1.4375 3.3125 1.4375 3.3125 0 6 C-3.90192418 8.0613939 -7.64114014 9.33956669 -12 10 C-8.40945767 6.11024581 -4.26101118 3.10267805 0 0 Z " fill="#7186BE" transform="translate(350,376)"/>
<path d="M0 0 C1.26070313 0.02030273 1.26070313 0.02030273 2.546875 0.04101562 C4.61485938 0.07626536 6.68251271 0.1300698 8.75 0.1875 C5.88026116 1.80385488 3.70535797 2.4608418 0.421875 2.6015625 C-0.37734375 2.64023437 -1.1765625 2.67890625 -2 2.71875 C-3.2375 2.76515625 -3.2375 2.76515625 -4.5 2.8125 C-5.76070313 2.87050781 -5.76070313 2.87050781 -7.046875 2.9296875 C-9.11423382 3.02365836 -11.18208627 3.10665564 -13.25 3.1875 C-9.41669799 -0.82482985 -5.15568073 -0.15708715 0 0 Z " fill="#3D52A0" transform="translate(308.25,431.8125)"/>
<path d="M0 0 C0 0.33 0 0.66 0 1 C-1.134375 1.309375 -2.26875 1.61875 -3.4375 1.9375 C-6.78775099 2.62924531 -6.78775099 2.62924531 -8 4 C-10.18639453 4.07258946 -12.37500389 4.08373783 -14.5625 4.0625 C-16.35880859 4.04896484 -16.35880859 4.04896484 -18.19140625 4.03515625 C-19.11824219 4.02355469 -20.04507812 4.01195312 -21 4 C-21 3.67 -21 3.34 -21 3 C-18.03 3 -15.06 3 -12 3 C-11.67 2.01 -11.34 1.02 -11 0 C-7.38357376 -1.6691198 -3.79425988 -0.65669883 0 0 Z " fill="#0D288D" transform="translate(325,428)"/>
<path d="M0 0 C7.57266875 -0.5939348 13.87518733 1.56713714 21 4 C17.95501389 4.95827504 15.97726069 4.99431517 12.890625 4.22265625 C11.75947266 3.94711914 11.75947266 3.94711914 10.60546875 3.66601562 C9.82816406 3.46685547 9.05085937 3.26769531 8.25 3.0625 C7.06083984 2.76956055 7.06083984 2.76956055 5.84765625 2.47070312 C3.89637115 1.98875921 1.94789217 1.49547912 0 1 C0 0.67 0 0.34 0 0 Z " fill="#657ABC" transform="translate(240,430)"/>
<path d="M0 0 C7.48291572 6.15034169 7.48291572 6.15034169 10 10 C6.68437443 9.44739574 3.84937793 8.83174295 1 7 C0 4 0 4 0 0 Z " fill="#586CB5" transform="translate(204,368)"/>
<path d="M0 0 C0.99 0.33 1.98 0.66 3 1 C4.69867188 1.14777936 6.40177489 1.24747066 8.10546875 1.31640625 C9.57983398 1.37924805 9.57983398 1.37924805 11.08398438 1.44335938 C12.62022461 1.50233398 12.62022461 1.50233398 14.1875 1.5625 C15.22326172 1.60568359 16.25902344 1.64886719 17.32617188 1.69335938 C19.8839819 1.79944366 22.44188845 1.90150146 25 2 C25 2.33 25 2.66 25 3 C16.75 3 8.5 3 0 3 C0 2.01 0 1.02 0 0 Z " fill="#6278BE" transform="translate(197,102)"/>
<path d="M0 0 C0.99 0.33 1.98 0.66 3 1 C0.1310659 4.50647501 -2.7317654 7.85281112 -6 11 C-6.66 10.34 -7.32 9.68 -8 9 C-7.50628906 8.51789062 -7.01257813 8.03578125 -6.50390625 7.5390625 C-5.86324219 6.90742188 -5.22257813 6.27578125 -4.5625 5.625 C-3.92441406 4.99851562 -3.28632813 4.37203125 -2.62890625 3.7265625 C-0.92117824 2.08276939 -0.92117824 2.08276939 0 0 Z " fill="#1E388F" transform="translate(230,21)"/>
<path d="M0 0 C2.97 0.495 2.97 0.495 6 1 C2.16295224 3.55803184 -1.75712791 5.34505724 -6.4375 4.625 C-6.953125 4.41875 -7.46875 4.2125 -8 4 C-6 2 -6 2 -2.875 1.875 C-1.92625 1.91625 -0.9775 1.9575 0 2 C0 1.34 0 0.68 0 0 Z " fill="#5F73B7" transform="translate(325,427)"/>
<path d="M0 0 C0.33 0.66 0.66 1.32 1 2 C-0.98 4.97 -2.96 7.94 -5 11 C-6.34887762 8.30224476 -5.70300484 6.88231982 -5 4 C-4.67 3.01 -4.34 2.02 -4 1 C-1.9375 0.3125 -1.9375 0.3125 0 0 Z " fill="#596EB6" transform="translate(409,360)"/>
<path d="M0 0 C2.9262753 1.31177858 4.75289234 2.75289234 7 5 C7.680625 5.309375 8.36125 5.61875 9.0625 5.9375 C11.45578707 7.24994775 12.00405747 8.51014367 13 11 C8.98935008 9.65843409 6.61296284 7.97314977 3.6875 4.9375 C2.99011719 4.22464844 2.29273438 3.51179688 1.57421875 2.77734375 C0 1 0 1 0 0 Z " fill="#788DC7" transform="translate(183,397)"/>
<path d="M0 0 C3.34726719 1.11575573 3.62079748 1.51344622 5.25 4.4375 C5.8275 5.613125 6.405 6.78875 7 8 C6.67 8.66 6.34 9.32 6 10 C2.64888166 7.76592111 1.18446044 6.73784176 0.1875 2.75 C0.125625 1.8425 0.06375 0.935 0 0 Z " fill="#4760A9" transform="translate(181,338)"/>
<path d="M0 0 C0.33 1.32 0.66 2.64 1 4 C0.071875 4.598125 -0.85625 5.19625 -1.8125 5.8125 C-4.20254718 7.45272845 -6.08470253 8.8718917 -8 11 C-8.66 10.67 -9.32 10.34 -10 10 C-6.7 6.7 -3.4 3.4 0 0 Z " fill="#162F89" transform="translate(185,67)"/>
<path d="M0 0 C0.33 0 0.66 0 1 0 C1.08142927 1.7492214 1.13938541 3.49954542 1.1875 5.25 C1.23970703 6.71179688 1.23970703 6.71179688 1.29296875 8.203125 C0.96075202 11.37468742 0.11327721 12.67040307 -2 15 C-2.19392201 9.47322267 -1.7479503 5.24385089 0 0 Z " fill="#1C348A" transform="translate(424,306)"/>
<path d="M0 0 C0.33 0.66 0.66 1.32 1 2 C-0.54442235 5.63393495 -1.48567857 6.78822059 -5.1875 8.3125 C-6.5796875 8.6528125 -6.5796875 8.6528125 -8 9 C-7.04270084 7.87411986 -6.08412105 6.7493285 -5.125 5.625 C-4.59132812 4.99851562 -4.05765625 4.37203125 -3.5078125 3.7265625 C-2.38567993 2.44163349 -1.20628025 1.20628025 0 0 Z " fill="#142E8B" transform="translate(174,78)"/>
<path d="M0 0 C0 0.99 0 1.98 0 3 C-2.53184488 5.35723489 -3.47190093 6 -7 6 C-7.33 4.68 -7.66 3.36 -8 2 C-6.865625 1.855625 -5.73125 1.71125 -4.5625 1.5625 C-1.19222799 1.38828522 -1.19222799 1.38828522 0 0 Z " fill="#354D9D" transform="translate(204,96)"/>
<path d="M0 0 C0.6875 1.8125 0.6875 1.8125 1 4 C-0.64504011 6.46756016 -1.80299352 6.94960299 -4.6875 7.6875 C-5.8321875 7.8421875 -5.8321875 7.8421875 -7 8 C-6.02133662 6.85373678 -5.04205413 5.70800212 -4.0625 4.5625 C-3.51722656 3.92441406 -2.97195312 3.28632812 -2.41015625 2.62890625 C-1.63204305 1.73008851 -0.84063472 0.84063472 0 0 Z " fill="#122C8B" transform="translate(165,87)"/>
<path d="M0 0 C1.65 0 3.3 0 5 0 C2.19195732 2.96404505 -0.18315774 5.44499019 -4 7 C-2.68 4.69 -1.36 2.38 0 0 Z " fill="#6780BA" transform="translate(371,402)"/>
<path d="M0 0 C0.66 0 1.32 0 2 0 C1.8125 2.875 1.8125 2.875 1 6 C-1.5625 7.375 -1.5625 7.375 -4 8 C-1.125 1.125 -1.125 1.125 0 0 Z " fill="#394FA0" transform="translate(370,356)"/>
<path d="M0 0 C0.33 0 0.66 0 1 0 C0.67 3.63 0.34 7.26 0 11 C-1.32 11.33 -2.64 11.66 -4 12 C-2.66666667 8 -1.33333333 4 0 0 Z " fill="#1A318C" transform="translate(387,325)"/>
<path d="M0 0 C0 1.32 0 2.64 0 4 C-3.37817425 4.84454356 -5.67465243 5.10844919 -9 4 C-2.25 0 -2.25 0 0 0 Z " fill="#5366B2" transform="translate(338,386)"/>
<path d="M0 0 C0 3.20395416 -0.74335022 5.09399739 -2 8 C-3.65 8 -5.3 8 -7 8 C-6.02133662 6.85373678 -5.04205413 5.70800212 -4.0625 4.5625 C-3.51722656 3.92441406 -2.97195312 3.28632812 -2.41015625 2.62890625 C-1.63204305 1.73008851 -0.84063472 0.84063472 0 0 Z " fill="#18318F" transform="translate(214,38)"/>
<path d="M0 0 C2.40072955 2.88087546 4.47291037 5.56404834 6 9 C0.125 6.25 0.125 6.25 -1 4 C-0.5625 1.875 -0.5625 1.875 0 0 Z " fill="#5D73B6" transform="translate(188,348)"/>
<path d="M0 0 C0.66 1.32 1.32 2.64 2 4 C1.01 4.495 1.01 4.495 0 5 C-0.66 4.67 -1.32 4.34 -2 4 C-2 4.66 -2 5.32 -2 6 C-3.32 6.33 -4.64 6.66 -6 7 C-2.25 1.125 -2.25 1.125 0 0 Z " fill="#152F8F" transform="translate(157,95)"/>
<path d="M0 0 C0.625 1.875 0.625 1.875 1 4 C-1.46278801 6.46278801 -3.70676982 6.99771255 -7 8 C-6.02133662 6.85373678 -5.04205413 5.70800212 -4.0625 4.5625 C-3.51722656 3.92441406 -2.97195312 3.28632812 -2.41015625 2.62890625 C-1.63204305 1.73008851 -0.84063472 0.84063472 0 0 Z " fill="#18308C" transform="translate(206,46)"/>
<path d="M0 0 C2.125 0.375 2.125 0.375 4 1 C3.67 1.33 3.34 1.66 3 2 C3.99 2.99 4.98 3.98 6 5 C2.42424104 5 0.94704065 3.91159393 -2 2 C-1.34 1.34 -0.68 0.68 0 0 Z " fill="#506DB2" transform="translate(205,412)"/>
<path d="M0 0 C2.475 0.495 2.475 0.495 5 1 C5.33 2.32 5.66 3.64 6 5 C5.01 5.495 5.01 5.495 4 6 C2.62437146 4.71034824 1.29233607 3.37310707 0 2 C0 1.34 0 0.68 0 0 Z " fill="#3E56A4" transform="translate(158,366)"/>
<path d="M0 0 C0.99 0 1.98 0 3 0 C1.79618552 2.49361571 0.54571278 4.68143083 -1 7 C-1.66 7 -2.32 7 -3 7 C-3 5.68 -3 4.36 -3 3 C-2.01 3 -1.02 3 0 3 C0 2.01 0 1.02 0 0 Z " fill="#4D66A9" transform="translate(217,80)"/>
<path d="M0 0 C0.66 0.33 1.32 0.66 2 1 C1.34 2.65 0.68 4.3 0 6 C-1.32 5.67 -2.64 5.34 -4 5 C-2.68 3.35 -1.36 1.7 0 0 Z " fill="#4F65B1" transform="translate(350,376)"/>
<path d="M0 0 C0 3.10551666 -0.5393715 4.35261084 -2 7 C-3.32 6.67 -4.64 6.34 -6 6 C-4.02 4.02 -2.04 2.04 0 0 Z " fill="#183290" transform="translate(221,31)"/>
<path d="M0 0 C1.32 0.33 2.64 0.66 4 1 C4.33 2.32 4.66 3.64 5 5 C3.68 4.67 2.36 4.34 1 4 C0.67 2.68 0.34 1.36 0 0 Z " fill="#37519F" transform="translate(210,415)"/>
<path d="M0 0 C1.98 0.99 1.98 0.99 4 2 C4 2.66 4 3.32 4 4 C5.65 4.33 7.3 4.66 9 5 C7.3125 5.75 7.3125 5.75 5 6 C2.25 4.1875 2.25 4.1875 0 2 C0 1.34 0 0.68 0 0 Z " fill="#102D8A" transform="translate(221,384)"/>
<path d="M0 0 C2.475 0.495 2.475 0.495 5 1 C5 2.98 5 4.96 5 7 C1.98672434 5.49336217 1.38943382 2.96833589 0 0 Z " fill="#2D469C" transform="translate(170,382)"/>
<path d="M0 0 C3 1 3 1 4.1875 3.0625 C4.455625 3.701875 4.72375 4.34125 5 5 C3.35 5 1.7 5 0 5 C0 3.35 0 1.7 0 0 Z " fill="#233B92" transform="translate(201,367)"/>
<path d="M0 0 C0.66666667 1.33333333 1.33333333 2.66666667 2 4 C2.37125 4.680625 2.7425 5.36125 3.125 6.0625 C4 8 4 8 4 11 C3.34 11 2.68 11 2 11 C0.57741188 7.17679443 -0.24042276 4.08718695 0 0 Z " fill="#122C84" transform="translate(144,329)"/>
</svg>
